/* XPM */
static char *backlight_down_on_xpm[] = {
/* width height num_colors chars_per_pixel */
"    58    58        7            1",
/* colors */
". c None",
"# c #020202",
"a c #6ec63b s Back0",
"b c #dedede",
"c c #6cb237 s Back1",
"d c #3e463e",
"e c #020202",
/* pixels */
"..######################################################..",
".#aaaaaaaaaaaaaaaaaaaaaaaaaaaaaaaaaaaaaaaaaaaaaaaaaaaaaa#.",
"#aaaaaaaaaaaaaaaaaaaaaaaaaaaaaaaaaaaaaaaaaaaaaaaaaaaaaaaab",
"#aaaaaaaaaaaaaaaaaaaaaaaaaaaaaaaaaaaaaaaaaaaaaaaaaaaaaaaab",
"#aaaaaaaaaaaaaaaaaaaaaaaaaaaaaaaaaaaaaaaaaaaaaaaaaaaaaaaab",
"#aaaaaaaaaccccccaaaaaaaaccccccaaaaaaaaccccccaaaaaaaaaaaaab",
"#aaaaaaacaaccccaacaaaacaaccccaaeaaaacaaccccaacaaaccaccaaab",
"#aaaaaaaccaaaaaaccaaaaccaaaaaaeeaaaaccaaaaaaccaaaccaccaaab",
"#aaaaaaaccaaaaaaccaaaaccaaaaaaeeaaaaccaaaaaaccaaacccaaaaab",
"#aaaaaaaccaaaaaaccaaaaccaaaaaaeeaaaaccaaaaaaccaaaccaccaaab",
"#aaaaaaaccaaaaaaccaaaaccaaaaaaeeaaaaccaaaaaaccaaaccaccaaab",
"#aaaaaaaccaaaaaaccaaaaccaaaaaaeeaaaaccaaaaaaccaaaaaaaaaaab",
"#aaaaaaaccaaaaaaccaaaaccaaaaaaeeaaaaccaaaaaaccaaaaaaaaaaab",
"#aaaaaaaccaaaaaaccaaaaccaaaaaaeeaaaaccaaaaaaccaaaccaccaaab",
"#aaaaaaacaaccccaacaaaacaaeeeeaaeaaaacaaeeeeaacaaaccaccaaab",
"#aaaaaaaaaccccccaaaaaaaaeeeeeeaaaaaaaaeeeeeeaaaaacccccaaab",
"#aaaaaaacaaaaaaaacaaaaeaaaaaaaaeaaaaeaaaaaaaaeaaacacacaaab",
"#aaaaaaaccaaaaaaccaaaaeeaaaaaaeeaaaaeeaaaaaaeeaaacaaacaaab",
"#aaaaaaaccaaaaaaccaaaaeeaaaaaaeeaaaaeeaaaaaaeeaaaaaaaaaaab",
"#aaaaaaaccaaaaaaccaaaaeeaaaaaaeeaaaaeeaaaaaaeeaaaaaaaaaaab",
"#aaaaaaaccaaaaaaccaaaaeeaaaaaaeeaaaaeeaaaaaaeeaaacccccaaab",
"#aaaaaaaccaaaaaaccaaaaeeaaaaaaeeaaaaeeaaaaaaeeaaaccaaaaaab",
"#aaaaaaaccaaaaaaccaaaaeeaaaaaaeeaaaaeeaaaaaaeeaaaccaccaaab",
"#aaaaccacaaccccaacaccaeaaeeeeaaeaccaeaaccccaaeaaaccaccaaab",
"#aaaaccaaaccccccaaaccaaaeeeeeeaaaccaaaccccccaaaaacccccaaab",
"#aaaaaaaaaaaaaaaaaaaaaaaaaaaaaaaaaaaaaaaaaaaaaaaaaaaaaaaab",
"#aaaaaaaaaaaaaaaaaaaaaaaaaaaaaaaaaaaaaaaaaaaaaaaaaaaaaaaab",
"#aaaaaaaaaaaaaaaaaaaaaaaaaaaaaaaaaaaaaaaaaaaaaaaaaaaaaaaab",
"#aaaadddddddddddddddddddddddddddddddddddddddddddddddddaaab",
"#aaaadddddddddddddddddddddddddddddddddddddddddddddddddcaab",
"#aaaaacccccccccccccccccccccccccccccccccccccccccccccccccaab",
"#aaaaaaaaaaaaaaaaaaaaaaaaaaaaaaaaaaaaaaaaaaaaaaaaaaaaaaaab",
"#aaaaaaaaaaaaaaaaaaaaaaaaaaaaaaaaaaaaaaaaaaaaaaaaaaaaaaaab",
"#aaaaaaaaaaaaaaaaaaaaaaaaaaaaaaaaaaaaaaaaaaaaaaaaaaaaaaaab",
"#aaaaaccaccaccaccaccaccaccaccaccaccaccaccaccaccaccaccaaaab",
"#aaaaaaaaaaaaaaaaaaaaaaaaaaaaaaaaaaaaaaaaaaaaaaaaaaaaaaaab",
"#aaaaaccaccaccaccaccaccaccaccaccaccaccaccaccaccaccaccaaaab",
"#aaaaaaaaaaaaaaaaaaaaaaaaaaaaaaaaaaaaaaaaaaaaaaaaaaaaaaaab",
"#aaaaaccaccaccaccaccaccaccaccaccaccaccaccaccaccaccaccaaaab",
"#aaaaaaaaaaaaaaaaaaaaaaaaaaaaaaaaaaaaaaaaaaaaaaaaaaaaaaaab",
"#aaaaaccaccaccaccaccaccaccaccaccaccaccaccaccaccaccaccaaaab",
"#aaaaaaaaaaaaaaaaaaaaaaaaaaaaaaaaaaaaaaaaaaaaaaaaaaaaaaaab",
"#aaaaaccaccaccaccaccaccaccaccaccaccaccaccaccaccaccaccaaaab",
"#aaaaaaaaaaaaaaaaaaaaaaaaaaaaaaaaaaaaaaaaaaaaaaaaaaaaaaaab",
"#aaaaaccaccaccaccaccaccaccaccaccaccaccaccaccaccaccaccaaaab",
"#aaaaaaaaaaaaaaaaaaaaaaaaaaaaaaaaaaaaaaaaaaaaaaaaaaaaaaaab",
"#aaaaaccaccaccaccaccaccaccaccaccaccaccaccaccaccaccaccaaaab",
"#aaaaaaaaaaaaaaaaaaaaaaaaaaaaaaaaaaaaaaaaaaaaaaaaaaaaaaaab",
"#aaaaaccaccaccaccaccaccaccaccaccaccaccaccaccaccaccaccaaaab",
"#aaaaaaaaaaaaaaaaaaaaaaaaaaaaaaaaaaaaaaaaaaaaaaaaaaaaaaaab",
"#aaaaaccaccaccaccaccaccaccaccaccaccaccaccaccaccaccaccaaaab",
"#aaaaaaaaaaaaaaaaaaaaaaaaaaaaaaaaaaaaaaaaaaaaaaaaaaaaaaaab",
"#aaaaaccaccaccaccaccaccaccaccaccaccaccaccaccaccaccaccaaaab",
"#aaaaaaaaaaaaaaaaaaaaaaaaaaaaaaaaaaaaaaaaaaaaaaaaaaaaaaaab",
"#aaaaaccaccaccaccaccaccaccaccaccaccaccaccaccaccaccaccaaaab",
"#aaaaaaaaaaaaaaaaaaaaaaaaaaaaaaaaaaaaaaaaaaaaaaaaaaaaaaaab",
".#aaaaaaaaaaaaaaaaaaaaaaaaaaaaaaaaaaaaaaaaaaaaaaaaaaaaaab.",
"..bbbbbbbbbbbbbbbbbbbbbbbbbbbbbbbbbbbbbbbbbbbbbbbbbbbbbb.."
};
