/* XPM */
static char * backlight_down_xpm[] = {
"58 58 9 1",
" 	c None",
".	c #020202",
"+	c #0A0A0A",
"@	c #670000",
"#	c #DEDEDE",
"$	c #8D2320",
"%	c #AA3E39",
"&	c #9A2D25",
"*	c #78100B",
"  ......................................................  ",
" .++++++++++++++++++++++++++++++++++++++++++++++++++++++. ",
".++@@@@@@@@@@@@@@@@@@@@@@@@@@@@@@@@@@@@@@@@@@@@@@@@@@@@@.#",
".+@@$$$$$$$$$$$$$$$$$$$$$$$$$$$$$$$$$$$$$$$$$$$$$$$$$$$$.#",
".+@$$%%%%%%%%%%%%%%%%%%%%%%%%%%%%%%%%%%%%%%%%%%%%%%%%%%%.#",
".+@$%%%%%%&&&&&&%%%%%%%%&&&&&&%%%%%%%%&&&&&&%%%%%%%%%%%%.#",
".+@$%%%%&%%&&&&%%&%%%%&%%&&&&%%.%%%%&%%&&&&%%&%%%&&%&&%%.#",
".+@$%%%%&&%%%%%%&&%%%%&&%%%%%%..%%%%&&%%%%%%&&%%%&&%&&%%.#",
".+@$%%%%&&%%%%%%&&%%%%&&%%%%%%..%%%%&&%%%%%%&&%%%&&&%%%%.#",
".+@$%%%%&&%%%%%%&&%%%%&&%%%%%%..%%%%&&%%%%%%&&%%%&&%&&%%.#",
".+@$%%%%&&%%%%%%&&%%%%&&%%%%%%..%%%%&&%%%%%%&&%%%&&%&&%%.#",
".+@$%%%%&&%%%%%%&&%%%%&&%%%%%%..%%%%&&%%%%%%&&%%%%%%%%%%.#",
".+@$%%%%&&%%%%%%&&%%%%&&%%%%%%..%%%%&&%%%%%%&&%%%%%%%%%%.#",
".+@$%%%%&&%%%%%%&&%%%%&&%%%%%%..%%%%&&%%%%%%&&%%%&&%&&%%.#",
".+@$%%%%&%%&&&&%%&%%%%&%%....%%.%%%%&%%....%%&%%%&&%&&%%.#",
".+@$%%%%%%&&&&&&%%%%%%%%......%%%%%%%%......%%%%%&&&&&%%.#",
".+@$%%%%&%%%%%%%%&%%%%.%%%%%%%%.%%%%.%%%%%%%%.%%%&%&%&%%.#",
".+@$%%%%&&%%%%%%&&%%%%..%%%%%%..%%%%..%%%%%%..%%%&%%%&%%.#",
".+@$%%%%&&%%%%%%&&%%%%..%%%%%%..%%%%..%%%%%%..%%%%%%%%%%.#",
".+@$%%%%&&%%%%%%&&%%%%..%%%%%%..%%%%..%%%%%%..%%%%%%%%%%.#",
".+@$%%%%&&%%%%%%&&%%%%..%%%%%%..%%%%..%%%%%%..%%%&&&&&%%.#",
".+@$%%%%&&%%%%%%&&%%%%..%%%%%%..%%%%..%%%%%%..%%%&&%%%%%.#",
".+@$%%%%&&%%%%%%&&%%%%..%%%%%%..%%%%..%%%%%%..%%%&&%&&%%.#",
".+@$%&&%&%%&&&&%%&%&&%.%%....%%.%&&%.%%&&&&%%.%%%&&%&&%%.#",
".+@$%&&%%%&&&&&&%%%&&%%%......%%%&&%%%&&&&&&%%%%%&&&&&%%.#",
".+@$%%%%%%%%%%%%%%%%%%%%%%%%%%%%%%%%%%%%%%%%%%%%%%%%%%%%.#",
".+@$%%%%%%%%%%%%%%%%%%%%%%%%%%%%%%%%%%%%%%%%%%%%%%%%%%%%.#",
".+@$%%%%%%%%%%%%%%%%%%%%%%%%%%%%%%%%%%%%%%%%%%%%%%%%%%%%.#",
".+@$%*************************************************%%.#",
".+@$%*************************************************&%.#",
".+@$%%&&&&&&&&&&&&&&&&&&&&&&&&&&&&&&&&&&&&&&&&&&&&&&&&&%.#",
".+@$%%%%%%%%%%%%%%%%%%%%%%%%%%%%%%%%%%%%%%%%%%%%%%%%%%%%.#",
".+@$%%%%%%%%%%%%%%%%%%%%%%%%%%%%%%%%%%%%%%%%%%%%%%%%%%%%.#",
".+@$%%%%%%%%%%%%%%%%%%%%%%%%%%%%%%%%%%%%%%%%%%%%%%%%%%%%.#",
".+@$%%&&%&&%&&%&&%&&%&&%&&%&&%&&%&&%&&%&&%&&%&&%&&%&&%%%.#",
".+@$%%%%%%%%%%%%%%%%%%%%%%%%%%%%%%%%%%%%%%%%%%%%%%%%%%%%.#",
".+@$%%&&%&&%&&%&&%&&%&&%&&%&&%&&%&&%&&%&&%&&%&&%&&%&&%%%.#",
".+@$%%%%%%%%%%%%%%%%%%%%%%%%%%%%%%%%%%%%%%%%%%%%%%%%%%%%.#",
".+@$%%&&%&&%&&%&&%&&%&&%&&%&&%&&%&&%&&%&&%&&%&&%&&%&&%%%.#",
".+@$%%%%%%%%%%%%%%%%%%%%%%%%%%%%%%%%%%%%%%%%%%%%%%%%%%%%.#",
".+@$%%&&%&&%&&%&&%&&%&&%&&%&&%&&%&&%&&%&&%&&%&&%&&%&&%%%.#",
".+@$%%%%%%%%%%%%%%%%%%%%%%%%%%%%%%%%%%%%%%%%%%%%%%%%%%%%.#",
".+@$%%&&%&&%&&%&&%&&%&&%&&%&&%&&%&&%&&%&&%&&%&&%&&%&&%%%.#",
".+@$%%%%%%%%%%%%%%%%%%%%%%%%%%%%%%%%%%%%%%%%%%%%%%%%%%%%.#",
".+@$%%&&%&&%&&%&&%&&%&&%&&%&&%&&%&&%&&%&&%&&%&&%&&%&&%%%.#",
".+@$%%%%%%%%%%%%%%%%%%%%%%%%%%%%%%%%%%%%%%%%%%%%%%%%%%%%.#",
".+@$%%&&%&&%&&%&&%&&%&&%&&%&&%&&%&&%&&%&&%&&%&&%&&%&&%%%.#",
".+@$%%%%%%%%%%%%%%%%%%%%%%%%%%%%%%%%%%%%%%%%%%%%%%%%%%%%.#",
".+@$%%&&%&&%&&%&&%&&%&&%&&%&&%&&%&&%&&%&&%&&%&&%&&%&&%%%.#",
".+@$%%%%%%%%%%%%%%%%%%%%%%%%%%%%%%%%%%%%%%%%%%%%%%%%%%%%.#",
".+@$%%&&%&&%&&%&&%&&%&&%&&%&&%&&%&&%&&%&&%&&%&&%&&%&&%%%.#",
".+@$%%%%%%%%%%%%%%%%%%%%%%%%%%%%%%%%%%%%%%%%%%%%%%%%%%%%.#",
".+@$%%&&%&&%&&%&&%&&%&&%&&%&&%&&%&&%&&%&&%&&%&&%&&%&&%%%.#",
".+@$%%%%%%%%%%%%%%%%%%%%%%%%%%%%%%%%%%%%%%%%%%%%%%%%%%%%.#",
".+@$%%&&%&&%&&%&&%&&%&&%&&%&&%&&%&&%&&%&&%&&%&&%&&%&&%%%.#",
".+@$%%%%%%%%%%%%%%%%%%%%%%%%%%%%%%%%%%%%%%%%%%%%%%%%%%%..#",
" .......................................................# ",
"  ######################################################  "};
