/* XPM */
static char * font_xpm[] = {
"152 15 5 1",
" 	c None",
".	c #000000",
"+	c #8E968A",
"@	c #6EC63B s Back0",
"#	c #AA3E39",
".......+.......+..............+.....++....+...++..+...+...........................+...+..++...+...+............+.........+......................++++....",
"..+...+...++..+...++..++..++..+.+..+++.....+..++......+...+...+..+....+...+++..+..+...+..++...+...+.++...+..+..+++..++...+....++..++++....+...+.++++++..",
"..........++..+....+...+..+.....+..+.+....+...++..........+............+....+..+..+...+..+..+..+.........+..+..+....................++..........+++++...",
"..+...+...++..+...++..++..+...+.+..+.+....+...++..+..+....+...++++....+.++..+..+..+.+..+........+++...++.+..+..+.+++++..++..+++...+.++....+.+++.++++++++",
"..+...................++......+...........+.......+..+........++++....+.....+..+....+..+.....+..........................++..........++..........+++++.++",
".......@.......@..............@.....@@....@...@@..@...@...........................@...@..@@...@...@............@.........@......................@@@@....",
"..@...@...@@..@...@@..@@..@@..@.@..@@@.....@..@@......@...@...@..@....@...@@@..@..@...@..@@...@...@.@@...@..@..@@@..@@...@....@@..@@@@....@...@.@@@@@@..",
"..........@@..@....@...@..@.....@..@.@....@...@@..........@............@....@..@..@...@..@..@..@.........@..@..@....................@@..........@@@@@...",
"..@...@...@@..@...@@..@@..@...@.@..@.@....@...@@..@..@....@...@@@@....@.@@..@..@..@.@..@........@@@...@@.@..@..@.@@@@@..@@..@@@...@.@@....@.@@@.@@@@@@@@",
"..@...................@@......@...........@.......@..@........@@@@....@.....@..@....@..@.....@..........................@@..........@@..........@@@@@.@@",
".......#.......#..............#.....##....#...##..#...#...........................#...#..##...#...#............#.........#......................####....",
"..#...#...##..#...##..##..##..#.#..###.....#..##......#...#...#..#....#...###..#..#...#..##...#...#.##...#..#..###..##...#....##..####....#...#.######..",
"..........##..#....#...#..#.....#..#.#....#...##..........#............#....#..#..#...#..#..#..#.........#..#..#....................##..........#####...",
"..#...#...##..#...##..##..#...#.#..#.#....#...##..#..#....#...####....#.##..#..#..#.#..#........###...##.#..#..#.#####..##..###...#.##....#.###.########",
"..#...................##......#...........#.......#..#........####....#.....#..#....#..#.....#..........................##..........##..........#####.##"};
