/* XPM */
static char * backlight_on_xpm[] = {
"58 58 7 1",
" 	c None",
".	c #020202",
"+	c #131313",
"@	c #DEDEDE",
"#	c #6EC63B s Back0",
"$	c #6CB237 s Back1",
"%	c #3E463E",
" ........................................................ ",
"..++++++++++++++++++++++++++++++++++++++++++++++++++++++.@",
".++#####################################################.@",
".+######################################################.@",
".+######################################################.@",
".+##########$$$$$$$$#$######$$$$$$$$#$######$$$$$$$$#$##.@",
".+##$##$###$$$$$$$$$#$$####$$$$$$$$$#$$####$$$$$$$$$#$$#.@",
".+##$#$##############$$##############$$##############$$#.@",
".+##$$#####$$########$$####$$########$$####$$########$$#.@",
".+##$#$####$$########$$####$$########$$####$$########$$#.@",
".+##$##$###$$########$$####$$########$$####$$########$$#.@",
".+#########$$########$$####$$########$$####$$########$$#.@",
".+##$##$###$$########$$####$$########$$####$$########$$#.@",
".+##$$$$###$$########$$####$$########$$####$$########$$#.@",
".+##$##$###$$########$$####$$########$$####$$########$$#.@",
".+##$##$###$##$$$$$$##$####$##$$$$$$##$####$##$$$$$$##$#.@",
".+##$##$#####$$$$$$$$########$$$$$$$#########$$$$$$$####.@",
".+####################$####$##########$####$##########$#.@",
".+###$$$###$$########$$####$$########$$####$$########$$#.@",
".+##$######$$########$$####$$########$$####$$########$$#.@",
".+##$#$$###$$########$$####$$########$$####$$########$$#.@",
".+##$##$###$$########$$####$$########$$####$$########$$#.@",
".+###$$$###$$########$$####$$########$$####$$########$$#.@",
".+#########$$########$$####$$########$$####$$########$$#.@",
".+#########$$##############$$##############$$###########.@",
".+######$$#$$#$$$$$$$$$#$$#$$#$$$$$$$$$#$$#$$#$$$$$$$$$#.@",
".+######$$##$#$$$$$$$$##$$##$#$$$$$$$$##$$##$#$$$$$$$$##.@",
".+######################################################.@",
".+###%%%%%%%%%%%%%%%%%%%%%%%%%%%%%%%%%%%%%%%%%%%%%%%%%$#.@",
".+####$$$$$$$$$$$$$$$$$$$$$$$$$$$$$$$$$$$$$$$$$$$$$$$$$#.@",
".+######################################################.@",
".+###$$#$$#$$#$$#$$#$$#$$#$$#$$#$$#$$#$$#$$#$$#$$#$$#$$#.@",
".+###$$#$$#$$#$$#$$#$$#$$#$$#$$#$$#$$#$$#$$#$$#$$#$$#$$#.@",
".+######################################################.@",
".+###$$#$$#$$#$$#$$#$$#$$#$$#$$#$$#$$#$$#$$#$$#$$#$$#$$#.@",
".+###$$#$$#$$#$$#$$#$$#$$#$$#$$#$$#$$#$$#$$#$$#$$#$$#$$#.@",
".+######################################################.@",
".+###$$#$$#$$#$$#$$#$$#$$#$$#$$#$$#$$#$$#$$#$$#$$#$$#$$#.@",
".+###$$#$$#$$#$$#$$#$$#$$#$$#$$#$$#$$#$$#$$#$$#$$#$$#$$#.@",
".+######################################################.@",
".+###$$#$$#$$#$$#$$#$$#$$#$$#$$#$$#$$#$$#$$#$$#$$#$$#$$#.@",
".+###$$#$$#$$#$$#$$#$$#$$#$$#$$#$$#$$#$$#$$#$$#$$#$$#$$#.@",
".+######################################################.@",
".+###$$#$$#$$#$$#$$#$$#$$#$$#$$#$$#$$#$$#$$#$$#$$#$$#$$#.@",
".+###$$#$$#$$#$$#$$#$$#$$#$$#$$#$$#$$#$$#$$#$$#$$#$$#$$#.@",
".+######################################################.@",
".+###$$#$$#$$#$$#$$#$$#$$#$$#$$#$$#$$#$$#$$#$$#$$#$$#$$#.@",
".+###$$#$$#$$#$$#$$#$$#$$#$$#$$#$$#$$#$$#$$#$$#$$#$$#$$#.@",
".+######################################################.@",
".+###$$#$$#$$#$$#$$#$$#$$#$$#$$#$$#$$#$$#$$#$$#$$#$$#$$#.@",
".+###$$#$$#$$#$$#$$#$$#$$#$$#$$#$$#$$#$$#$$#$$#$$#$$#$$#.@",
".+######################################################.@",
".+###$$#$$#$$#$$#$$#$$#$$#$$#$$#$$#$$#$$#$$#$$#$$#$$#$$#.@",
".+###$$#$$#$$#$$#$$#$$#$$#$$#$$#$$#$$#$$#$$#$$#$$#$$#$$#.@",
".+######################################################.@",
".+######################################################.@",
"........................................................@@",
" @@@@@@@@@@@@@@@@@@@@@@@@@@@@@@@@@@@@@@@@@@@@@@@@@@@@@@@@ "};
