/* XPM */
static char * backlight_err_xpm[] = {
"58 58 10 1",
" 	c None",
".	c #030000",
"+	c #250000",
"@	c #FBC0C3",
"#	c #670000",
"$	c #8D2320",
"%	c #AA3E39",
"&	c #000000",
"*	c #9A2D25",
"=	c #78100B",
" ........................................................ ",
"..++++++++++++++++++++++++++++++++++++++++++++++++++++++.@",
".++#####################################################.@",
".+##$$$$$$$$$$$$$$$$$$$$$$$$$$$$$$$$$$$$$$$$$$$$$$$$$$$$.@",
".+#$$%%%%%%%%%%%%%%%%%%%%%%%%%%%%%%%%%%%%%%%%%%%%%%%%%%%.@",
".+#$%%%%%%%%&&&&&&&&%*%%%%%%********%*%%%%%%********%*%%.@",
".+#$*%%*%%%&&&&&&&&&%**%%%%*********%**%%%%*********%**%.@",
".+#$*%*%%%%%%%%%%%%%%**%%%%%%%%%%%%%%**%%%%%%%%%%%%%%**%.@",
".+#$**%%%%%&&%%%%%%%%**%%%%**%%%%%%%%**%%%%**%%%%%%%%**%.@",
".+#$*%*%%%%&&%%%%%%%%**%%%%**%%%%%%%%**%%%%**%%%%%%%%**%.@",
".+#$*%%*%%%&&%%%%%%%%**%%%%**%%%%%%%%**%%%%**%%%%%%%%**%.@",
".+#$%%%%%%%&&%%%%%%%%**%%%%**%%%%%%%%**%%%%**%%%%%%%%**%.@",
".+#$*%%*%%%&&%%%%%%%%**%%%%**%%%%%%%%**%%%%**%%%%%%%%**%.@",
".+#$****%%%&&%%%%%%%%**%%%%**%%%%%%%%**%%%%**%%%%%%%%**%.@",
".+#$*%%*%%%&&%%%%%%%%**%%%%**%%%%%%%%**%%%%**%%%%%%%%**%.@",
".+#$*%%*%%%&%%&&&&&&%%*%%%%*%%&&&&&&%%*%%%%*%%&&&&&&%%*%.@",
".+#$*%%*%%%%%&&&&&&&&%%%%%%%%&&&&&&&&%%%%%%%%&&&&&&&&%%%.@",
".+#$%%%%%%%&%%%%%%%%%%*%%%%&%%%%%%%%%%*%%%%&%%%%%%%%%%*%.@",
".+#$%***%%%&&%%%%%%%%**%%%%&&%%%%%%%%**%%%%&&%%%%%%%%**%.@",
".+#$*%%%%%%&&%%%%%%%%**%%%%&&%%%%%%%%**%%%%&&%%%%%%%%**%.@",
".+#$*%**%%%&&%%%%%%%%**%%%%&&%%%%%%%%**%%%%&&%%%%%%%%**%.@",
".+#$*%%*%%%&&%%%%%%%%**%%%%&&%%%%%%%%**%%%%&&%%%%%%%%**%.@",
".+#$%***%%%&&%%%%%%%%**%%%%&&%%%%%%%%**%%%%&&%%%%%%%%**%.@",
".+#$%%%%%%%&&%%%%%%%%**%%%%&&%%%%%%%%**%%%%&&%%%%%%%%**%.@",
".+#$%%%%%%%&&%%%%%%%%%%%%%%&&%%%%%%%%%%%%%%&&%%%%%%%%%%%.@",
".+#$%%%%**%&&%&&&&&&&&&%**%&&%*********%**%&&%*********%.@",
".+#$%%%%**%%&%&&&&&&&&%%**%%&%********%%**%%&%********%%.@",
".+#$%%%%%%%%%%%%%%%%%%%%%%%%%%%%%%%%%%%%%%%%%%%%%%%%%%%%.@",
".+#$%=================================================*%.@",
".+#$%%*************************************************%.@",
".+#$%%%%%%%%%%%%%%%%%%%%%%%%%%%%%%%%%%%%%%%%%%%%%%%%%%%%.@",
".+#$%**%**%**%**%**%**%**%**%**%**%**%**%**%**%**%**%**%.@",
".+#$%**%**%**%**%**%**%**%**%**%**%**%**%**%**%**%**%**%.@",
".+#$%%%%%%%%%%%%%%%%%%%%%%%%%%%%%%%%%%%%%%%%%%%%%%%%%%%%.@",
".+#$%**%**%**%**%**%**%**%**%**%**%**%**%**%**%**%**%**%.@",
".+#$%**%**%**%**%**%**%**%**%**%**%**%**%**%**%**%**%**%.@",
".+#$%%%%%%%%%%%%%%%%%%%%%%%%%%%%%%%%%%%%%%%%%%%%%%%%%%%%.@",
".+#$%**%**%**%**%**%**%**%**%**%**%**%**%**%**%**%**%**%.@",
".+#$%**%**%**%**%**%**%**%**%**%**%**%**%**%**%**%**%**%.@",
".+#$%%%%%%%%%%%%%%%%%%%%%%%%%%%%%%%%%%%%%%%%%%%%%%%%%%%%.@",
".+#$%**%**%**%**%**%**%**%**%**%**%**%**%**%**%**%**%**%.@",
".+#$%**%**%**%**%**%**%**%**%**%**%**%**%**%**%**%**%**%.@",
".+#$%%%%%%%%%%%%%%%%%%%%%%%%%%%%%%%%%%%%%%%%%%%%%%%%%%%%.@",
".+#$%**%**%**%**%**%**%**%**%**%**%**%**%**%**%**%**%**%.@",
".+#$%**%**%**%**%**%**%**%**%**%**%**%**%**%**%**%**%**%.@",
".+#$%%%%%%%%%%%%%%%%%%%%%%%%%%%%%%%%%%%%%%%%%%%%%%%%%%%%.@",
".+#$%**%**%**%**%**%**%**%**%**%**%**%**%**%**%**%**%**%.@",
".+#$%**%**%**%**%**%**%**%**%**%**%**%**%**%**%**%**%**%.@",
".+#$%%%%%%%%%%%%%%%%%%%%%%%%%%%%%%%%%%%%%%%%%%%%%%%%%%%%.@",
".+#$%**%**%**%**%**%**%**%**%**%**%**%**%**%**%**%**%**%.@",
".+#$%**%**%**%**%**%**%**%**%**%**%**%**%**%**%**%**%**%.@",
".+#$%%%%%%%%%%%%%%%%%%%%%%%%%%%%%%%%%%%%%%%%%%%%%%%%%%%%.@",
".+#$%**%**%**%**%**%**%**%**%**%**%**%**%**%**%**%**%**%.@",
".+#$%**%**%**%**%**%**%**%**%**%**%**%**%**%**%**%**%**%.@",
".+#$%%%%%%%%%%%%%%%%%%%%%%%%%%%%%%%%%%%%%%%%%%%%%%%%%%%%.@",
".+#$%%%%%%%%%%%%%%%%%%%%%%%%%%%%%%%%%%%%%%%%%%%%%%%%%%%%.@",
"........................................................@@",
" @@@@@@@@@@@@@@@@@@@@@@@@@@@@@@@@@@@@@@@@@@@@@@@@@@@@@@@@ "};
