/* XPM */
static char * backlight_off_xpm[] = {
"58 58 10 1",
" 	c None",
".	c #020202",
"+	c #131313",
"@	c #DEDEDE",
"#	c #323632",
"$	c #555A55",
"%	c #6E766E",
"&	c #5E665A",
"*	c #636B63",
"=	c #3E463E",
" ........................................................ ",
"..++++++++++++++++++++++++++++++++++++++++++++++++++++++.@",
".++#####################################################.@",
".+##$$$$$$$$$$$$$$$$$$$$$$$$$$$$$$$$$$$$$$$$$$$$$$$$$$$$.@",
".+#$$%%%%%%%%%%%%%%%%%%%%%%%%%%%%%%%%%%%%%%%%%%%%%%%%%%%.@",
".+#$%%%%%%%%&&&&&&&&%&%%%%%%&&&&&&&&%&%%%%%%&&&&&&&&%&%%.@",
".+#$&%%&%%%&&&&&&&&&%&&%%%%&&&&&&&&&%&&%%%%&&&&&&&&&%&&%.@",
".+#$&%&%%%%%%%%%%%%%%&&%%%%%%%%%%%%%%&&%%%%%%%%%%%%%%&&%.@",
".+#$&&%%%%%&&%%%%%%%%&&%%%%&&%%%%%%%%&&%%%%&&%%%%%%%%&&%.@",
".+#$&%&%%%%&&%%%%%%%%&&%%%%&&%%%%%%%%&&%%%%&&%%%%%%%%&&%.@",
".+#$&%%&%%%&&%%%%%%%%&&%%%%&&%%%%%%%%&&%%%%&&%%%%%%%%&&%.@",
".+#$%%%%%%%&&%%%%%%%%&&%%%%&&%%%%%%%%&&%%%%&&%%%%%%%%&&%.@",
".+#$&%%&%%%&&%%%%%%%%&&%%%%&&%%%%%%%%&&%%%%&&%%%%%%%%&&%.@",
".+#$&&&&%%%&&%%%%%%%%&&%%%%&&%%%%%%%%&&%%%%&&%%%%%%%%&&%.@",
".+#$&%%&%%%&&%%%%%%%%&&%%%%&&%%%%%%%%&&%%%%&&%%%%%%%%&&%.@",
".+#$&%%&%%%&%%&&&&&&%%&%%%%&%%&&&&&&%%&%%%%&%%&&&&&&%%&%.@",
".+#$&%%&%%%%%&&&&&&&&%%%%%%%%&&&&&&&*%%%%%%%%&&&&&&&*%%%.@",
".+#$%%%%%%%*%%%%%%%%%%&%%%%&%%%%%%%%%%&%%%%&%%%%%%%%%%&%.@",
".+#$%&&&%%%&&%%%%%%%%&&%%%%&&%%%%%%%%&&%%%%&&%%%%%%%%&&%.@",
".+#$&%%%%%%&&%%%%%%%%&&%%%%&&%%%%%%%%&&%%%%&&%%%%%%%%&&%.@",
".+#$&%&&%%%&&%%%%%%%%&&%%%%&&%%%%%%%%&&%%%%&&%%%%%%%%&&%.@",
".+#$&%%&%%%&&%%%%%%%%&&%%%%&&%%%%%%%%&&%%%%&&%%%%%%%%&&%.@",
".+#$%&&&%%%&&%%%%%%%%&&%%%%&&%%%%%%%%&&%%%%&&%%%%%%%%&&%.@",
".+#$%%%%%%%&&%%%%%%%%&&%%%%&&%%%%%%%%&&%%%%&&%%%%%%%%&&%.@",
".+#$%%%%%%%&&%%%%%%%%%%%%%%&&%%%%%%%%%%%%%%&&%%%%%%%%%%%.@",
".+#$%%%%&&%&&%&&&&&&&&&%&&%&&%&&&&&&&&&%&&%&&%&&&&&&&&&%.@",
".+#$%%%%&&%%&%&&&&&&&&%%&&%%&%&&&&&&&&%%&&%%&%&&&&&&&&%%.@",
".+#$%%%%%%%%%%%%%%%%%%%%%%%%%%%%%%%%%%%%%%%%%%%%%%%%%%%%.@",
".+#$%=================================================&%.@",
".+#$%%&&&&&&&&&&&&&&&&&&&&&&&&&&&&&&&&&&&&&&&&&&&&&&&&&%.@",
".+#$%%%%%%%%%%%%%%%%%%%%%%%%%%%%%%%%%%%%%%%%%%%%%%%%%%%%.@",
".+#$%&&%&&%&&%&&%&&%&&%&&%&&%&&%&&%&&%&&%&&%&&%&&%&&%&&%.@",
".+#$%&&%&&%&&%&&%&&%&&%&&%&&%&&%&&%&&%&&%&&%&&%&&%&&%&&%.@",
".+#$%%%%%%%%%%%%%%%%%%%%%%%%%%%%%%%%%%%%%%%%%%%%%%%%%%%%.@",
".+#$%&&%&&%&&%&&%&&%&&%&&%&&%&&%&&%&&%&&%&&%&&%&&%&&%&&%.@",
".+#$%&&%&&%&&%&&%&&%&&%&&%&&%&&%&&%&&%&&%&&%&&%&&%&&%&&%.@",
".+#$%%%%%%%%%%%%%%%%%%%%%%%%%%%%%%%%%%%%%%%%%%%%%%%%%%%%.@",
".+#$%&&%&&%&&%&&%&&%&&%&&%&&%&&%&&%&&%&&%&&%&&%&&%&&%&&%.@",
".+#$%&&%&&%&&%&&%&&%&&%&&%&&%&&%&&%&&%&&%&&%&&%&&%&&%&&%.@",
".+#$%%%%%%%%%%%%%%%%%%%%%%%%%%%%%%%%%%%%%%%%%%%%%%%%%%%%.@",
".+#$%&&%&&%&&%&&%&&%&&%&&%&&%&&%&&%&&%&&%&&%&&%&&%&&%&&%.@",
".+#$%&&%&&%&&%&&%&&%&&%&&%&&%&&%&&%&&%&&%&&%&&%&&%&&%&&%.@",
".+#$%%%%%%%%%%%%%%%%%%%%%%%%%%%%%%%%%%%%%%%%%%%%%%%%%%%%.@",
".+#$%&&%&&%&&%&&%&&%&&%&&%&&%&&%&&%&&%&&%&&%&&%&&%&&%&&%.@",
".+#$%&&%&&%&&%&&%&&%&&%&&%&&%&&%&&%&&%&&%&&%&&%&&%&&%&&%.@",
".+#$%%%%%%%%%%%%%%%%%%%%%%%%%%%%%%%%%%%%%%%%%%%%%%%%%%%%.@",
".+#$%&&%&&%&&%&&%&&%&&%&&%&&%&&%&&%&&%&&%&&%&&%&&%&&%&&%.@",
".+#$%&&%&&%&&%&&%&&%&&%&&%&&%&&%&&%&&%&&%&&%&&%&&%&&%&&%.@",
".+#$%%%%%%%%%%%%%%%%%%%%%%%%%%%%%%%%%%%%%%%%%%%%%%%%%%%%.@",
".+#$%&&%&&%&&%&&%&&%&&%&&%&&%&&%&&%&&%&&%&&%&&%&&%&&%&&%.@",
".+#$%&&%&&%&&%&&%&&%&&%&&%&&%&&%&&%&&%&&%&&%&&%&&%&&%&&%.@",
".+#$%%%%%%%%%%%%%%%%%%%%%%%%%%%%%%%%%%%%%%%%%%%%%%%%%%%%.@",
".+#$%&&%&&%&&%&&%&&%&&%&&%&&%&&%&&%&&%&&%&&%&&%&&%&&%&&%.@",
".+#$%&&%&&%&&%&&%&&%&&%&&%&&%&&%&&%&&%&&%&&%&&%&&%&&%&&%.@",
".+#$%%%%%%%%%%%%%%%%%%%%%%%%%%%%%%%%%%%%%%%%%%%%%%%%%%%%.@",
".+#$%%%%%%%%%%%%%%%%%%%%%%%%%%%%%%%%%%%%%%%%%%%%%%%%%%%%.@",
"........................................................@@",
" @@@@@@@@@@@@@@@@@@@@@@@@@@@@@@@@@@@@@@@@@@@@@@@@@@@@@@@@ "};
