/* XPM */
static char * parts_xpm[] = {
"132 44 6 1",
" 	c None",
".	c #6E766E",
"+	c #020202",
"@	c #5E665A",
"#	c #6EC63B s Back0",
"$	c #6CB237 s Back1",
".++++++++.+..@@@@@@@@.+..++++++++.@..++++++++.+..@@@@@@@@.+..++++++++.@..++++++++.@..++++++++.+..++++++++.+..++++++++.+.+++++..++##+",
"+++++++++.++@@@@@@@@@.+++++++++++.+++++++++++.++@@@@@@@@@.+++++++++++.@@+++++++++.@@+++++++++.+++++++++++.+++++++++++.+++++++.+.+#+#",
"..........++..........++..........++..........++..........++..........@@..........@@..........++..........++..........++..##++..++##",
"++........++@@........++@@........++@@........++++........++++........@@++........@@@@........++++........++++........+++++++.+.+#+#",
"++........++@@........++@@........++@@........++++........++++........@@++........@@@@........++++........++++........+++++++..++##+",
"++........++@@........++@@........++@@........++++........++++........@@++........@@@@........++++........++++........++..##+..++##+",
"++........++@@........++@@........++@@........++++........++++........@@++........@@@@........++++........++++........++++++++++++++",
"++........++@@........++@@........++@@........++++........++++........@@++........@@@@........++++........++++........+++++++..++##+",
"++........++@@........++@@........++@@........++++........++++........@@++........@@@@........++++........++++........++..##+..++##+",
"++........++@@........++@@........++@@........++++........++++........@@++........@@@@........++++........++++........+++++++..++##+",
"+..@@@@@@..+@..@@@@@@..+@..++++++..+@..++++++..++..++++++..++..++++++..@+..++++++..@@..@@@@@@..++..++++++..++..++++++..+++++.+++#+++",
"..@@@@@@@@....@@@@@@@@....++++++++....++++++++....++++++++....++++++++....++++++++....@@@@@@@@....++++++++....++++++++....##+...+###",
"+..........+@..........++..........@@..........+@..........+@..........++..........+@..........++..........+@..........++++++.+++#++",
"++........++@@........++++........@@@@........++@@........++@@........++++........++@@........++++........++@@........+++++++..++##+",
"++........++@@........++++........@@@@........++@@........++@@........++++........++@@........++++........++@@........++..##.++.#++#",
"++........++@@........++++........@@@@........++@@........++@@........++++........++@@........++++........++@@........++++++        ",
"++........++@@........++++........@@@@........++@@........++@@........++++........++@@........++++........++@@........++++++        ",
"++........++@@........++++........@@@@........++@@........++@@........++++........++@@........++++........++@@........++..##        ",
"++........++@@........++++........@@@@........++@@........++@@........++++........++@@........++++........++@@........++++++        ",
"++..........@@..........++..........@@..........@@..........@@..........++..........@@..........++..........@@..........++++        ",
"++.+++++++++@@.@@@@@@@@@++.+++++++++@@.++++++++@@@.@@@@@@@@@@@.+++++++++++.+++++++++@@.@@@@@@@@@++.+++++++++@@.+++++++++..##        ",
".+.++++++++..@.@@@@@@@@..+.++++++++..@.++++++++..@.@@@@@@@@..@.++++++++..+.++++++++..@.@@@@@@@@..+.++++++++..@.++++++++.++++        ",
"#++++++++#+##$$$$$$$$#+##++++++++#+##++++++++#+##$$$$$$$$#+##++++++++#$##++++++++#$##++++++++#+##++++++++#+##++++++++#+#++++        ",
"+++++++++#++$$$$$$$$$#+++++++++++#+++++++++++#++$$$$$$$$$#+++++++++++#$$+++++++++#$$+++++++++#+++++++++++#+++++++++++#++            ",
"##########++##########++##########++##########++##########++##########$$##########$$##########++##########++##########++            ",
"++########++$$########++$$########++$$########++++########++++########$$++########$$$$########++++########++++########++            ",
"++########++$$########++$$########++$$########++++########++++########$$++########$$$$########++++########++++########++            ",
"++########++$$########++$$########++$$########++++########++++########$$++########$$$$########++++########++++########++            ",
"++########++$$########++$$########++$$########++++########++++########$$++########$$$$########++++########++++########++            ",
"++########++$$########++$$########++$$########++++########++++########$$++########$$$$########++++########++++########++            ",
"++########++$$########++$$########++$$########++++########++++########$$++########$$$$########++++########++++########++            ",
"++########++$$########++$$########++$$########++++########++++########$$++########$$$$########++++########++++########++            ",
"+##$$$$$$##+$##$$$$$$##+$##++++++##+$##++++++##++##++++++##++##++++++##$+##++++++##$$##$$$$$$##++##++++++##++##++++++##+            ",
"##$$$$$$$$####$$$$$$$$####++++++++####++++++++####++++++++####++++++++####++++++++####$$$$$$$$####++++++++####++++++++##            ",
"+##########+###########++##########$###########+###########+###########++##########+###########++##########+###########+            ",
"++########++$$########++++########$$$$########++$$########++$$########++++########++$$########++++########++$$########++            ",
"++########++$$########++++########$$$$########++$$########++$$########++++########++$$########++++########++$$########++            ",
"++########++$$########++++########$$$$########++$$########++$$########++++########++$$########++++########++$$########++            ",
"++########++$$########++++########$$$$########++$$########++$$########++++########++$$########++++########++$$########++            ",
"++########++$$########++++########$$$$########++$$########++$$########++++########++$$########++++########++$$########++            ",
"++########++$$########++++########$$$$########++$$########++$$########++++########++$$########++++########++$$########++            ",
"++##########$$##########++##########$$##########$$##########$$##########++##########$$##########++##########$$##########            ",
"++#+++++++++$$#$$$$$$$$$++#+++++++++$$#+++++++++$$#$$$$$$$$$$$#+++++++++++#+++++++++$$#$$$$$$$$$++#+++++++++$$#+++++++++  ++        ",
"#+#++++++++##$#$$$$$$$$##+#++++++++##$#++++++++##$#$$$$$$$$##$#++++++++##+#++++++++##$#$$$$$$$$##+#++++++++##$#++++++++#  ++        "};
